<svg xmlns="http://www.w3.org/2000/svg" width="1000" height="430" viewBox="0 0 1000 430"><rect width="100%" height="100%" fill="white"/><style>text{font-family:Arial,sans-serif;fill:#1f2937}</style><text x="250" y="36" font-size="25" font-weight="700">Trade exposure and subsequent GDP growth</text><text x="250" y="62" font-size="15">Two-way fixed effects; 95% CI with country-clustered small-sample inference</text><line x1="349.25925925925924" y1="105" x2="349.25925925925924" y2="355" stroke="#e5e7eb"/><text x="349.25925925925924" y="388" text-anchor="middle" font-size="14">-0.15</text><line x1="473.3333333333333" y1="105" x2="473.3333333333333" y2="355" stroke="#e5e7eb"/><text x="473.3333333333333" y="388" text-anchor="middle" font-size="14">-0.10</text><line x1="597.4074074074074" y1="105" x2="597.4074074074074" y2="355" stroke="#e5e7eb"/><text x="597.4074074074074" y="388" text-anchor="middle" font-size="14">-0.05</text><line x1="721.4814814814815" y1="105" x2="721.4814814814815" y2="355" stroke="#374151"/><text x="721.4814814814815" y="388" text-anchor="middle" font-size="14">0.00</text><line x1="845.5555555555555" y1="105" x2="845.5555555555555" y2="355" stroke="#e5e7eb"/><text x="845.5555555555555" y="388" text-anchor="middle" font-size="14">0.05</text><text x="230" y="155" text-anchor="end" font-size="16">Lagged trade balance</text><line x1="301.3666666666667" y1="150" x2="868.6333333333332" y2="150" stroke="#1261A0" stroke-width="5"/><line x1="301.3666666666667" y1="141" x2="301.3666666666667" y2="159" stroke="#1261A0" stroke-width="3"/><line x1="868.6333333333332" y1="141" x2="868.6333333333332" y2="159" stroke="#1261A0" stroke-width="3"/><circle cx="585" cy="150" r="8" fill="#1261A0"/><text x="925" y="155" font-size="14">p=0.305</text><text x="230" y="265" text-anchor="end" font-size="16">Lagged trade openness</text><line x1="755.2296296296296" y1="260" x2="840.5925925925925" y2="260" stroke="#1261A0" stroke-width="5"/><line x1="755.2296296296296" y1="251" x2="755.2296296296296" y2="269" stroke="#1261A0" stroke-width="3"/><line x1="840.5925925925925" y1="251" x2="840.5925925925925" y2="269" stroke="#1261A0" stroke-width="3"/><circle cx="797.911111111111" cy="260" r="8" fill="#1261A0"/><text x="925" y="265" font-size="14">p=0.0029</text><text x="585" y="422" text-anchor="middle" font-size="15">Coefficient (percentage-point growth)</text></svg>
